<svg width="90" height="90" viewBox="0 0 90 90" fill="none" xmlns="http://www.w3.org/2000/svg">
<circle cx="45" cy="45" r="45" fill="#161313"/>
<g clip-path="url(#clip0_20_269)">
<path d="M40.0529 23.2415C40.3133 23.5578 40.4728 23.9449 40.5108 24.3529C40.5488 24.7608 40.4637 25.1707 40.2663 25.5298C38.7244 28.3607 37.9191 31.534 37.9247 34.7577C37.9247 45.4818 46.6672 54.1656 57.4419 54.1656C58.8475 54.1656 60.2157 54.0189 61.5305 53.7389C61.9336 53.6516 62.3534 53.685 62.7376 53.8349C63.1218 53.9848 63.4533 54.2445 63.6908 54.5817C63.9415 54.9323 64.0693 55.3558 64.0543 55.7866C64.0394 56.2173 63.8825 56.631 63.6081 56.9633C61.5163 59.5328 58.8775 61.6031 55.884 63.0233C52.8904 64.4435 49.6177 65.1777 46.3044 65.1724C34.0095 65.1724 24.0508 55.2671 24.0508 43.0628C24.0508 33.8776 29.6889 25.9992 37.7166 22.66C38.1165 22.491 38.5604 22.4564 38.9817 22.5612C39.403 22.666 39.7789 22.9047 40.0529 23.2415Z" fill="white"/>
</g>
<defs>
<clipPath id="clip0_20_269">
<rect width="42.6724" height="42.6724" fill="white" transform="translate(24.0508 22.5)"/>
</clipPath>
</defs>
</svg>
