<svg width="30" height="26" viewBox="0 0 30 26" fill="none" xmlns="http://www.w3.org/2000/svg">
<path d="M29.0006 0.428589H1.00056C0.843415 0.428589 0.714844 0.55716 0.714844 0.714303V3.00002C0.714844 3.15716 0.843415 3.28573 1.00056 3.28573H29.0006C29.1577 3.28573 29.2863 3.15716 29.2863 3.00002V0.714303C29.2863 0.55716 29.1577 0.428589 29.0006 0.428589ZM29.0006 22.7143H1.00056C0.843415 22.7143 0.714844 22.8429 0.714844 23V25.2857C0.714844 25.4429 0.843415 25.5714 1.00056 25.5714H29.0006C29.1577 25.5714 29.2863 25.4429 29.2863 25.2857V23C29.2863 22.8429 29.1577 22.7143 29.0006 22.7143ZM29.0006 11.5714H1.00056C0.843415 11.5714 0.714844 11.7 0.714844 11.8572V14.1429C0.714844 14.3 0.843415 14.4286 1.00056 14.4286H29.0006C29.1577 14.4286 29.2863 14.3 29.2863 14.1429V11.8572C29.2863 11.7 29.1577 11.5714 29.0006 11.5714Z" fill="black"/>
</svg>
