<svg width="90" height="90" viewBox="0 0 90 90" fill="none" xmlns="http://www.w3.org/2000/svg">
<circle cx="45" cy="45" r="44" fill="white" stroke="#161313" stroke-width="2"/>
<path d="M44.6108 36.4978C42.253 36.4978 39.9918 37.4344 38.3245 39.1016C36.6573 40.7689 35.7207 43.0301 35.7207 45.3879C35.7207 47.7457 36.6573 50.0069 38.3245 51.6741C39.9918 53.3413 42.253 54.278 44.6108 54.278C46.9686 54.278 49.2298 53.3413 50.897 51.6741C52.5642 50.0069 53.5009 47.7457 53.5009 45.3879C53.5009 43.0301 52.5642 40.7689 50.897 39.1016C49.2298 37.4344 46.9686 36.4978 44.6108 36.4978Z" fill="#161313"/>
<path fill-rule="evenodd" clip-rule="evenodd" d="M44.6109 25.8297C45.0825 25.8297 45.5347 26.017 45.8682 26.3505C46.2016 26.6839 46.3889 27.1362 46.3889 27.6077V29.3857C46.3889 29.8573 46.2016 30.3096 45.8682 30.643C45.5347 30.9764 45.0825 31.1638 44.6109 31.1638C44.1394 31.1638 43.6871 30.9764 43.3537 30.643C43.0202 30.3096 42.8329 29.8573 42.8329 29.3857V27.6077C42.8329 27.1362 43.0202 26.6839 43.3537 26.3505C43.6871 26.017 44.1394 25.8297 44.6109 25.8297ZM29.1297 29.9067C29.4632 29.5734 29.9153 29.3861 30.3868 29.3861C30.8583 29.3861 31.3104 29.5734 31.6438 29.9067L34.3109 32.5737C34.6347 32.9091 34.814 33.3582 34.8099 33.8244C34.8059 34.2906 34.6189 34.7365 34.2892 35.0662C33.9596 35.3958 33.5136 35.5828 33.0474 35.5869C32.5812 35.5909 32.1321 35.4117 31.7968 35.0878L29.1297 32.4208C28.7964 32.0874 28.6091 31.6352 28.6091 31.1638C28.6091 30.6923 28.7964 30.2401 29.1297 29.9067ZM60.0921 29.9067C60.4254 30.2401 60.6127 30.6923 60.6127 31.1638C60.6127 31.6352 60.4254 32.0874 60.0921 32.4208L57.4251 35.0878C57.2611 35.2577 57.0649 35.3931 56.848 35.4863C56.631 35.5795 56.3977 35.6285 56.1616 35.6306C55.9256 35.6326 55.6914 35.5877 55.4729 35.4983C55.2544 35.4089 55.0559 35.2768 54.8889 35.1099C54.722 34.9429 54.59 34.7444 54.5006 34.5259C54.4112 34.3074 54.3662 34.0733 54.3682 33.8372C54.3703 33.6011 54.4193 33.3678 54.5125 33.1509C54.6057 32.9339 54.7412 32.7377 54.911 32.5737L57.578 29.9067C57.9114 29.5734 58.3636 29.3861 58.8351 29.3861C59.3065 29.3861 59.7587 29.5734 60.0921 29.9067ZM25.0527 45.3879C25.0527 44.9163 25.2401 44.4641 25.5735 44.1307C25.9069 43.7972 26.3592 43.6099 26.8308 43.6099H28.6088C29.0803 43.6099 29.5326 43.7972 29.866 44.1307C30.1995 44.4641 30.3868 44.9163 30.3868 45.3879C30.3868 45.8595 30.1995 46.3117 29.866 46.6451C29.5326 46.9786 29.0803 47.1659 28.6088 47.1659H26.8308C26.3592 47.1659 25.9069 46.9786 25.5735 46.6451C25.2401 46.3117 25.0527 45.8595 25.0527 45.3879ZM58.8351 45.3879C58.8351 44.9163 59.0224 44.4641 59.3558 44.1307C59.6893 43.7972 60.1415 43.6099 60.6131 43.6099H62.3911C62.8627 43.6099 63.3149 43.7972 63.6483 44.1307C63.9818 44.4641 64.1691 44.9163 64.1691 45.3879C64.1691 45.8595 63.9818 46.3117 63.6483 46.6451C63.3149 46.9786 62.8627 47.1659 62.3911 47.1659H60.6131C60.1415 47.1659 59.6893 46.9786 59.3558 46.6451C59.0224 46.3117 58.8351 45.8595 58.8351 45.3879ZM34.3109 55.688C34.6442 56.0214 34.8314 56.4735 34.8314 56.945C34.8314 57.4165 34.6442 57.8686 34.3109 58.2021L31.6438 60.8691C31.3085 61.193 30.8594 61.3722 30.3932 61.3681C29.927 61.3641 29.481 61.1771 29.1514 60.8474C28.8217 60.5178 28.6347 60.0718 28.6307 59.6056C28.6266 59.1394 28.8058 58.6903 29.1297 58.355L31.7968 55.688C32.1302 55.3546 32.5823 55.1674 33.0538 55.1674C33.5253 55.1674 33.9774 55.3546 34.3109 55.688ZM54.911 55.688C55.2444 55.3546 55.6966 55.1674 56.168 55.1674C56.6395 55.1674 57.0917 55.3546 57.4251 55.688L60.0921 58.355C60.416 58.6903 60.5952 59.1394 60.5912 59.6056C60.5871 60.0718 60.4001 60.5178 60.0705 60.8474C59.7408 61.1771 59.2949 61.3641 58.8287 61.3681C58.3625 61.3722 57.9133 61.193 57.578 60.8691L54.911 58.2021C54.5776 57.8686 54.3904 57.4165 54.3904 56.945C54.3904 56.4735 54.5776 56.0214 54.911 55.688ZM44.6109 59.612C45.0825 59.612 45.5347 59.7994 45.8682 60.1328C46.2016 60.4662 46.3889 60.9185 46.3889 61.3901V63.1681C46.3889 63.6396 46.2016 64.0919 45.8682 64.4253C45.5347 64.7588 45.0825 64.9461 44.6109 64.9461C44.1394 64.9461 43.6871 64.7588 43.3537 64.4253C43.0202 64.0919 42.8329 63.6396 42.8329 63.1681V61.3901C42.8329 60.9185 43.0202 60.4662 43.3537 60.1328C43.6871 59.7994 44.1394 59.612 44.6109 59.612Z" fill="#161313"/>
</svg>
